<svg width="33" height="35" viewBox="0 0 33 35" fill="none" xmlns="http://www.w3.org/2000/svg">
<path id="Vector" d="M11.9474 16.7747L15.296 20.1328C15.4942 20.3316 15.8171 20.3283 16.0112 20.1255L21.5933 14.2943M2.327 5.9114C5.75784 6.46513 11.566 6.08157 15.2681 1.45905C15.7804 0.81944 16.9032 0.859809 17.4048 1.50783C19.3357 4.00246 23.4152 6.8415 30.0569 5.86016C30.6315 5.77525 31.1822 6.15995 31.2285 6.739C31.8173 14.0992 29.6886 28.0661 16.7339 32.9867C16.5083 33.0724 16.2587 33.0733 16.0358 32.9806C10.2867 30.5908 -0.0470787 22.3229 1.08602 6.83628C1.13065 6.22632 1.72322 5.81395 2.327 5.9114Z" stroke="#A0A0A0" stroke-width="2" stroke-linecap="round"/>
</svg>
